<svg width="159" height="53" viewBox="0 0 159 53" fill="none" xmlns="http://www.w3.org/2000/svg">
<path d="M57.1047 14.325V39H71.6297V33.75H63.9647V14.325H57.1047Z" fill="#58A9A5"/>
<path d="M93.7571 29.165C93.7571 22.935 89.3121 19.12 83.4671 19.12C77.6221 19.12 73.1771 22.935 73.1771 29.165C73.1771 35.43 77.5871 39.245 83.4321 39.245C89.2771 39.245 93.7571 35.43 93.7571 29.165ZM80.1771 29.165C80.1771 26.365 81.7171 25.07 83.4671 25.07C85.2171 25.07 86.7921 26.365 86.7921 29.165C86.7921 32 85.1821 33.295 83.4321 33.295C81.6471 33.295 80.1771 32 80.1771 29.165Z" fill="#58A9A5"/>
<path d="M95.4281 29.165C95.4281 35.43 99.5231 39.245 105.368 39.245C110.338 39.245 113.978 36.34 114.958 31.475H107.678C107.293 32.7 106.523 33.4 105.228 33.4C103.548 33.4 102.428 32 102.428 29.165C102.428 26.365 103.548 24.965 105.228 24.965C106.523 24.965 107.293 25.7 107.678 26.89H114.958C113.978 21.955 110.338 19.12 105.368 19.12C99.5231 19.12 95.4281 22.935 95.4281 29.165Z" fill="#58A9A5"/>
<path d="M137.898 19.365H131.003V29.9C131.003 32.175 129.743 33.505 127.748 33.505C125.788 33.505 124.493 32.175 124.493 29.9V19.365H117.668V30.775C117.668 35.955 120.503 39.175 125.053 39.175C127.818 39.175 129.883 37.88 131.003 36.2V39H137.898V19.365Z" fill="#58A9A5"/>
<path d="M158.322 33.225C158.287 25.77 147.822 28.01 147.822 25.21C147.822 24.475 148.417 24.02 149.537 24.02C151.007 24.02 151.882 24.755 152.092 25.98H158.287C157.832 22.095 155.032 19.12 149.677 19.12C144.357 19.12 141.522 21.955 141.522 25.385C141.522 32.595 151.952 30.25 151.952 33.12C151.952 33.82 151.287 34.38 150.132 34.38C148.697 34.38 147.612 33.68 147.437 32.385H140.787C141.067 36.305 144.707 39.245 150.167 39.245C155.242 39.245 158.322 36.655 158.322 33.225Z" fill="#58A9A5"/>
<path fill-rule="evenodd" clip-rule="evenodd" d="M4 24C6.20914 24 8 25.7909 8 28V45H25C27.2091 45 29 46.7909 29 49C29 51.2091 27.2091 53 25 53H0V28C0 25.7909 1.79086 24 4 24Z" fill="#58A9A5"/>
<path fill-rule="evenodd" clip-rule="evenodd" d="M41 24C38.7909 24 37 25.7909 37 28V45H20C17.7909 45 16 46.7909 16 49C16 51.2091 17.7909 53 20 53H45V28C45 25.7909 43.2091 24 41 24Z" fill="#58A9A5"/>
<path fill-rule="evenodd" clip-rule="evenodd" d="M43.7831 30.873C42.1964 32.4101 39.6641 32.3698 38.127 30.7831L26.0313 18.2967L14.2195 6.87557C12.6314 5.33995 12.5888 2.80765 14.1244 1.21952C15.66 -0.36862 18.1923 -0.411196 19.7805 1.12442L31.6863 12.6365L43.873 25.2169C45.4101 26.8036 45.3698 29.3359 43.7831 30.873Z" fill="#58A9A5"/>
<path fill-rule="evenodd" clip-rule="evenodd" d="M1.21688 30.873C2.80361 32.4101 5.33595 32.3698 6.87302 30.7831L18.9687 18.2967L30.7805 6.87557C32.3686 5.33995 32.4112 2.80765 30.8756 1.21952C29.34 -0.36862 26.8077 -0.411196 25.2195 1.12442L13.3137 12.6365L1.12698 25.2169C-0.410091 26.8036 -0.369842 29.3359 1.21688 30.873Z" fill="#58A9A5"/>
</svg>
